<mxfile host="app.diagrams.net" modified="2023-10-29T12:55:14.533Z" agent="Mozilla/5.0 (Windows NT 10.0; Win64; x64) AppleWebKit/537.36 (KHTML, like Gecko) Chrome/118.0.0.0 Safari/537.36" version="22.0.8" etag="oetPDsX_ya8DKisXApCz" type="github">
  <diagram name="หน้า-1" id="b-CtxcMlIZk3-vqeETgr">
    <mxGraphModel>
      <root>
        <mxCell id="0" />
        <mxCell id="1" parent="0" />
      </root>
    </mxGraphModel>
  </diagram>
</mxfile>
